<svg xmlns="http://www.w3.org/2000/svg" viewBox="0 0 64 64" role="img" aria-label="AI vulnerability research marker">
  <defs>
    <radialGradient id="disc" cx="38%" cy="30%" r="70%">
      <stop offset="0" stop-color="#22190e"/>
      <stop offset="0.58" stop-color="#14100a"/>
      <stop offset="1" stop-color="#0e0b06"/>
    </radialGradient>
  </defs>
  <circle cx="32" cy="35" r="27" fill="#000" opacity=".28"/>
  <circle cx="32" cy="32" r="28" fill="none" stroke="#f2ead2" stroke-width="3" opacity=".18"/>
  <circle cx="32" cy="32" r="27" fill="url(#disc)"/>
  <circle cx="32" cy="32" r="27" fill="none" stroke="#a9742a" stroke-width="3"/>
  <circle cx="32" cy="32" r="23.5" fill="none" stroke="#ffc23a" stroke-width="1.6"/>
  <circle cx="32" cy="32" r="19" fill="none" stroke="#f2ead2" stroke-width=".7" opacity=".24"/>
  <path d="M32 15.5 46.5 24v16L32 48.5 17.5 40V24Z" fill="none" stroke="#a9742a" stroke-width="2.2" stroke-linejoin="round"/>
  <path d="M32 18.8 43.7 25.7v12.6L32 45.2 20.3 38.3V25.7Z" fill="none" stroke="#ffc23a" stroke-width="2.2" stroke-linejoin="round"/>
  <path d="M21.8 32s3.9-7 10.2-7 10.2 7 10.2 7-3.9 7-10.2 7-10.2-7-10.2-7Z" fill="none" stroke="#ffc23a" stroke-width="2.5" stroke-linecap="round" stroke-linejoin="round"/>
  <circle cx="32" cy="32" r="4.4" fill="none" stroke="#f2ead2" stroke-width="2"/>
  <circle cx="33.7" cy="30.2" r="1.2" fill="#f2ead2"/>
  <path d="M32 18.8v-4.1M32 45.2v4.1M20.3 25.7l-3.6-2.1M43.7 25.7l3.6-2.1M20.3 38.3l-3.6 2.1M43.7 38.3l3.6 2.1" fill="none" stroke="#f2ead2" stroke-width="1.4" stroke-linecap="round" opacity=".8"/>
</svg>
