<svg xmlns="http://www.w3.org/2000/svg" viewBox="0 0 64 64" role="img" aria-label="CTF crypto encoding marker">
  <defs>
    <radialGradient id="disc" cx="38%" cy="30%" r="70%">
      <stop offset="0" stop-color="#22190e"/>
      <stop offset="0.58" stop-color="#14100a"/>
      <stop offset="1" stop-color="#0e0b06"/>
    </radialGradient>
  </defs>
  <circle cx="32" cy="35" r="27" fill="#000" opacity=".28"/>
  <circle cx="32" cy="32" r="28" fill="none" stroke="#f2ead2" stroke-width="3" opacity=".18"/>
  <circle cx="32" cy="32" r="27" fill="url(#disc)"/>
  <circle cx="32" cy="32" r="27" fill="none" stroke="#a9742a" stroke-width="3"/>
  <circle cx="32" cy="32" r="23.5" fill="none" stroke="#ffc23a" stroke-width="1.6"/>
  <circle cx="32" cy="32" r="19" fill="none" stroke="#f2ead2" stroke-width=".7" opacity=".24"/>
  <path d="M32 16.5 45 26.5 40.1 45H23.9L19 26.5Z" fill="none" stroke="#ffc23a" stroke-width="2.7" stroke-linejoin="round"/>
  <path d="M32 16.5v28.5M19 26.5h26M23.9 45l8.1-18.5L40.1 45M32 16.5l-5.3 10M32 16.5l5.3 10" fill="none" stroke="#a9742a" stroke-width="1.8" stroke-linecap="round" stroke-linejoin="round"/>
  <path d="M26.7 26.5 32 20.5l5.3 6-5.3 6Z" fill="none" stroke="#f2ead2" stroke-width="1.5" stroke-linejoin="round" opacity=".9"/>
  <path d="M28 38h8M30.2 34.5l3.6 7M33.8 34.5l-3.6 7" fill="none" stroke="#ffc23a" stroke-width="1.8" stroke-linecap="round"/>
  <circle cx="32" cy="32.5" r="1.6" fill="#f2ead2"/>
</svg>
