<svg xmlns="http://www.w3.org/2000/svg" viewBox="0 0 64 64" role="img" aria-label="CTF marker">
  <defs>
    <radialGradient id="disc" cx="38%" cy="30%" r="70%">
      <stop offset="0" stop-color="#22190e"/>
      <stop offset="0.58" stop-color="#14100a"/>
      <stop offset="1" stop-color="#0e0b06"/>
    </radialGradient>
  </defs>
  <circle cx="32" cy="35" r="27" fill="#000" opacity=".28"/>
  <circle cx="32" cy="32" r="28" fill="none" stroke="#f2ead2" stroke-width="3" opacity=".18"/>
  <circle cx="32" cy="32" r="27" fill="url(#disc)"/>
  <circle cx="32" cy="32" r="27" fill="none" stroke="#a9742a" stroke-width="3"/>
  <circle cx="32" cy="32" r="23.5" fill="none" stroke="#ffc23a" stroke-width="1.6"/>
  <circle cx="32" cy="32" r="19" fill="none" stroke="#f2ead2" stroke-width=".7" opacity=".24"/>
  <path d="M24 48V17.5" fill="none" stroke="#ffc23a" stroke-width="3" stroke-linecap="round"/>
  <path d="M24 19.5c5-2.1 9.1 2.6 14.1.4 1.8-.8 3.5-1.8 5.2-2.2v17.2c-1.9.4-3.8 1.5-5.8 2.2-4.7 1.7-8.7-2.7-13.5-.6Z" fill="none" stroke="#ffc23a" stroke-width="2.6" stroke-linejoin="round"/>
  <path d="M29.8 20.6v15.2M36.7 21.3v15.1M25 27.1c4.6-1.7 8.5 2.4 13 .7 1.6-.6 3.1-1.5 4.6-1.9" fill="none" stroke="#a9742a" stroke-width="1.7" stroke-linecap="round"/>
  <path d="M20.5 48h13" fill="none" stroke="#ffc23a" stroke-width="3" stroke-linecap="round"/>
  <path d="M27.4 19.6c3.5-.5 6.5 2.3 10.2.6" fill="none" stroke="#f2ead2" stroke-width="1.4" stroke-linecap="round" opacity=".85"/>
</svg>
