<svg xmlns="http://www.w3.org/2000/svg" viewBox="0 0 64 64" role="img" aria-label="Email parser bug marker">
  <defs>
    <radialGradient id="disc" cx="38%" cy="30%" r="70%">
      <stop offset="0" stop-color="#22190e"/>
      <stop offset="0.58" stop-color="#14100a"/>
      <stop offset="1" stop-color="#0e0b06"/>
    </radialGradient>
  </defs>
  <circle cx="32" cy="35" r="27" fill="#000" opacity=".28"/>
  <circle cx="32" cy="32" r="28" fill="none" stroke="#f2ead2" stroke-width="3" opacity=".18"/>
  <circle cx="32" cy="32" r="27" fill="url(#disc)"/>
  <circle cx="32" cy="32" r="27" fill="none" stroke="#a9742a" stroke-width="3"/>
  <circle cx="32" cy="32" r="23.5" fill="none" stroke="#ffc23a" stroke-width="1.6"/>
  <circle cx="32" cy="32" r="19" fill="none" stroke="#f2ead2" stroke-width=".7" opacity=".24"/>
  <path d="M18.5 24.5h27v20h-27Z" fill="none" stroke="#ffc23a" stroke-width="2.7" stroke-linejoin="round"/>
  <path d="M19.5 25.7 32 36.2 44.5 25.7M19.5 43.3l9.1-9M44.5 43.3l-9.1-9" fill="none" stroke="#a9742a" stroke-width="2" stroke-linecap="round" stroke-linejoin="round"/>
  <circle cx="32" cy="36" r="6.2" fill="#14100a" stroke="#ffc23a" stroke-width="2.3"/>
  <path d="M32 31.6 33.4 34.4l3.1.5-2.2 2.1.5 3-2.8-1.4-2.8 1.4.5-3-2.2-2.1 3.1-.5Z" fill="none" stroke="#f2ead2" stroke-width="1.5" stroke-linejoin="round"/>
  <path d="M23 22.1h18" fill="none" stroke="#f2ead2" stroke-width="1.5" stroke-linecap="round" opacity=".7"/>
</svg>
